<?xml version="1.0" standalone="no"?>
<!DOCTYPE svg PUBLIC "-//W3C//DTD SVG 20010904//EN"
 "http://www.w3.org/TR/2001/REC-SVG-20010904/DTD/svg10.dtd">
<svg version="1.0" xmlns="http://www.w3.org/2000/svg"
 width="513.000000pt" height="513.000000pt" viewBox="0 0 513.000000 513.000000"
 preserveAspectRatio="xMidYMid meet">
<metadata>
Created by potrace 1.11, written by Peter Selinger 2001-2013
</metadata>
<g transform="translate(0.000000,513.000000) scale(0.100000,-0.100000)"
fill="#000000" stroke="none">
<path d="M2688 5015 c-1 -1 -45 -6 -96 -9 -51 -4 -101 -9 -110 -11 -9 -1 -39
-6 -67 -9 -99 -14 -122 -18 -240 -46 -110 -26 -281 -78 -330 -100 -11 -5 -54
-23 -95 -41 -155 -66 -332 -171 -475 -282 -98 -76 -272 -248 -347 -343 -244
-308 -411 -696 -474 -1099 -8 -55 -17 -110 -19 -123 -25 -155 -25 -629 0 -763
2 -9 6 -40 10 -70 10 -80 52 -272 81 -369 146 -483 416 -879 793 -1164 282
-212 644 -366 1001 -427 67 -12 75 -13 150 -23 161 -20 416 -26 580 -12 646
53 1165 324 1524 796 139 183 138 182 151 380 3 47 7 105 10 130 2 25 7 86 10
135 4 50 8 106 10 125 2 19 7 78 10 130 4 52 8 111 10 130 2 19 7 79 10 132
l7 96 -26 -2 c-15 -2 -28 -5 -30 -7 -2 -2 -7 -31 -11 -64 -3 -33 -8 -69 -11
-80 -2 -11 -6 -33 -9 -49 -123 -762 -497 -1284 -1086 -1516 -87 -35 -251 -83
-319 -94 -14 -2 -36 -7 -50 -10 -124 -29 -469 -42 -630 -24 -360 42 -702 188
-970 416 -223 191 -421 470 -535 757 -15 39 -31 79 -35 90 -9 21 -43 132 -55
175 -3 14 -11 41 -16 60 -57 216 -83 438 -83 725 -1 205 8 417 19 435 1 3 5
28 9 55 3 28 8 61 11 75 3 14 10 51 15 82 17 92 75 295 114 395 252 658 761
1084 1416 1187 569 89 1102 -34 1496 -345 212 -168 394 -436 488 -719 34 -103
47 -119 80 -107 10 4 11 18 6 54 -4 26 -11 71 -14 98 -4 28 -9 59 -11 70 -2
11 -7 43 -10 70 -3 28 -11 79 -16 115 -11 67 -18 113 -24 165 -2 17 -6 48 -9
70 -14 88 -26 172 -31 215 -12 97 -8 92 -128 162 -158 93 -335 174 -494 227
-66 22 -198 61 -222 66 -9 2 -45 10 -81 18 -36 8 -81 18 -100 21 -55 9 -93 16
-115 20 -11 3 -51 8 -90 11 -38 4 -81 9 -95 11 -28 6 -446 14 -452 9z"/>
<path d="M1925 3121 l-30 -3 35 -12 c38 -12 49 -30 109 -171 19 -44 49 -111
66 -150 18 -38 44 -99 60 -135 66 -156 67 -157 76 -135 20 48 170 386 199 450
18 39 36 80 41 93 5 13 22 31 39 40 16 9 30 19 30 22 0 4 -88 5 -145 0 -19 -1
-19 -2 1 -10 12 -4 24 -14 26 -22 6 -13 -182 -478 -192 -478 -4 0 -12 17 -19
38 -13 38 -19 53 -44 112 -32 73 -119 296 -122 313 -2 10 5 23 16 30 10 6 19
14 19 17 0 6 -120 7 -165 1z"/>
<path d="M2640 3119 c-25 -3 -35 -7 -23 -7 51 -4 53 -13 53 -296 0 -238 -2
-264 -17 -278 -10 -9 -25 -18 -33 -21 -8 -3 28 -5 80 -5 74 0 89 2 68 9 -15 6
-29 18 -32 27 -5 15 -10 384 -7 508 l1 41 63 -2 c82 -2 102 -10 126 -49 28
-44 33 -100 14 -147 -21 -54 -63 -82 -124 -83 -57 -1 -64 -12 -13 -22 153 -28
260 105 193 242 -30 62 -77 82 -204 86 -55 2 -120 0 -145 -3z"/>
<path d="M3304 3114 c-4 -10 -14 -37 -24 -59 -10 -22 -55 -128 -100 -235 -122
-289 -119 -284 -180 -303 -8 -3 28 -5 80 -5 60 0 87 3 74 8 -34 13 -34 33 -2
119 25 65 35 81 52 82 77 3 211 -2 216 -8 11 -12 60 -147 60 -164 0 -9 -10
-21 -22 -26 -18 -8 1 -10 77 -10 55 0 90 2 79 4 -12 2 -31 14 -42 26 -11 12
-73 148 -137 302 -65 154 -119 282 -121 284 -2 2 -6 -5 -10 -15z m65 -254 c21
-58 38 -106 36 -108 -5 -5 -195 -6 -200 0 -3 3 18 65 46 137 60 153 49 155
118 -29z"/>
</g>
</svg>
